# xmcd CD database file
#
# Track frame offsets:
#	150
#	26577
#	42287
#	54707
#	66020
#	83865
#	102067
#	116512
#	136102
#	150135
#	159967
#	177477
#	191220
#	203562
#	212592
#	225440
#	247247
#	262135
#	277360
#	292092
#
# Disc length: 4024 seconds
#
# Revision: 0
# Processed by: cddbd v1.5.1PL0 Copyright (c) Steve Scherf et al.
# Submitted via: CDex 1.51
#
DISCID=220fb614
DTITLE=Various Artist - Acoustic Guitar Virtuosos
DYEAR=1900
DGENRE=Blues
TTITLE0=John Henry-Furry Lewis
TTITLE1=White Lightnin'-Furry Lewis
TTITLE2=I'd Been Well Warned-Sleepy John Estes
TTITLE3=Walk Right In-Gus Cannon
TTITLE4="A" Bluse-Scrapper Blackwell
TTITLE5=Moaning Bluse-Lonnie Johnson
TTITLE6=Let Us Get Together Right Down Here-Blind Gary Davis
TTITLE7=Lo, I Be With You Always-Blind Gary Davis
TTITLE8=See What You Done Done-Baby Tate
TTITLE9=Trucking Them Bluse A-way-Baby Tate
TTITLE10=Sweet Little Woman-Doug Quattlebaum
TTITLE11=Mojo Hand-Lightnin'Hopking
TTITLE12=Too Many Drivers-Smokey Hogg
TTITLE13=Cairo Bluse-Little Son Jackson
TTITLE14=I've Grown So Ugly-Robert Pete Williams
TTITLE15=Rolling Stone-Robert Pete Williams
TTITLE16=Tiajuana Bluse-Big Joe Williams
TTITLE17=Ramblin'-Johnny Shines
TTITLE18=Stroll Out West-Eddie Taylor
TTITLE19=That's All Right-Blind Snooks Eaglin
EXTD=
EXTT0=
EXTT1=
EXTT2=
EXTT3=
EXTT4=
EXTT5=
EXTT6=
EXTT7=
EXTT8=
EXTT9=
EXTT10=
EXTT11=
EXTT12=
EXTT13=
EXTT14=
EXTT15=
EXTT16=
EXTT17=
EXTT18=
EXTT19=
PLAYORDER=
